2.2Hz3min_grf.mot
version=1
nRows=27
nColumns 19
inDegrees=yes
endheader
time	1_ground_force_vx	1_ground_force_vy	1_ground_force_vz	1_ground_force_px	1_ground_force_py	1_ground_force_pz	1_ground_torque_x	1_ground_torque_y	1_ground_torque_z	2_ground_force_vx	2_ground_force_vy	2_ground_force_vz	2_ground_force_px	2_ground_force_py	2_ground_force_pz	2_ground_torque_x	2_ground_torque_y	2_ground_torque_z
            3.751500	          -73.687757	         1079.516970	         -144.728474	           -0.289838	            0.006242	           -0.412277	           -0.090029	            1.318916	           -0.176824	          -76.048490	          980.724155	          150.558744	           -0.259024	            0.005820	           -0.773810	           -0.022373	            0.288529	            0.044294
            3.752000	          -72.908420	         1081.319248	         -144.585107	           -0.289842	            0.006242	           -0.412057	           -0.085323	            1.265449	           -0.169205	          -74.972245	          981.096160	          150.606535	           -0.259162	            0.005819	           -0.773772	           -0.019295	            0.252491	            0.038760
            3.752500	          -71.900612	         1082.221785	         -144.813021	           -0.289855	            0.006242	           -0.412058	           -0.086379	            1.300140	           -0.173973	          -74.138304	          983.677631	          150.521504	           -0.259215	            0.005819	           -0.773780	           -0.023330	            0.309540	            0.047366
            3.753000	          -71.075677	         1081.681768	         -144.954959	           -0.290095	            0.006242	           -0.412192	           -0.085257	            1.297496	           -0.173876	          -73.296291	          984.048622	          150.616331	           -0.259239	            0.005819	           -0.773591	           -0.021233	            0.285067	            0.043632
            3.753500	          -69.930036	         1083.484903	         -144.995941	           -0.290071	            0.006241	           -0.411933	           -0.086343	            1.337781	           -0.179027	          -71.987145	          984.790044	          150.618401	           -0.259243	            0.005819	           -0.773580	           -0.023374	            0.319764	            0.048906
            3.754000	          -69.059201	         1083.845617	         -145.042425	           -0.290207	            0.006241	           -0.412038	           -0.086124	            1.351671	           -0.180883	          -70.918185	          987.187322	          150.767261	           -0.259249	            0.005819	           -0.773647	           -0.020386	            0.283777	            0.043340
            3.754500	          -68.188399	         1084.386992	         -145.088104	           -0.290281	            0.006242	           -0.412187	           -0.086272	            1.371960	           -0.183565	          -69.978644	          986.455147	          150.482651	           -0.259471	            0.005817	           -0.773465	           -0.016562	            0.233470	            0.035616
            3.755000	          -67.179404	         1085.647714	         -144.810053	           -0.290402	            0.006241	           -0.411991	           -0.084234	            1.361251	           -0.181572	          -69.185463	          987.378163	          150.626404	           -0.259401	            0.005817	           -0.773385	           -0.013167	            0.187907	            0.028666
            3.755500	          -66.171072	         1084.927558	         -144.953219	           -0.290524	            0.006242	           -0.412168	           -0.082284	            1.349104	           -0.180249	          -67.925273	          988.672613	          150.395818	           -0.259570	            0.005817	           -0.773480	           -0.010532	            0.153300	            0.023320
            3.756000	          -64.795433	         1086.188548	         -144.721947	           -0.290569	            0.006241	           -0.412029	           -0.084163	            1.410856	           -0.187980	          -66.893263	          988.308221	          150.347130	           -0.259533	            0.005817	           -0.773359	           -0.006511	            0.096197	            0.014634
            3.756500	          -63.740583	         1086.728535	         -144.492969	           -0.290600	            0.006242	           -0.412150	           -0.084475	            1.440241	           -0.191496	          -66.287700	          989.232523	          149.974731	           -0.259549	            0.005817	           -0.773359	           -0.007684	            0.114674	            0.017385
            3.757000	          -62.731545	         1086.547770	         -144.312837	           -0.290719	            0.006242	           -0.412170	           -0.086252	            1.493935	           -0.198421	          -65.075609	          990.894416	          149.933191	           -0.259472	            0.005817	           -0.773406	           -0.010782	            0.164177	            0.024842
            3.757500	          -61.768666	         1088.710283	         -144.076643	           -0.290793	            0.006241	           -0.411950	           -0.084039	            1.481236	           -0.196022	          -64.281296	          991.450946	          149.606334	           -0.259530	            0.005817	           -0.773324	           -0.009119	            0.140641	            0.021222
            3.758000	          -60.621816	         1088.168314	         -143.806695	           -0.290826	            0.006241	           -0.412068	           -0.083817	            1.504529	           -0.198831	          -63.436624	          991.085375	          149.698533	           -0.259570	            0.005816	           -0.773185	           -0.005739	            0.089660	            0.013543
            3.758500	          -59.566382	         1088.707562	         -143.348410	           -0.290952	            0.006241	           -0.412055	           -0.080379	            1.469112	           -0.193436	          -62.311706	          990.906405	          149.368878	           -0.259526	            0.005816	           -0.773150	           -0.000686	            0.010903	            0.001643
            3.759000	          -58.786586	         1089.247496	         -143.118750	           -0.291000	            0.006242	           -0.412104	           -0.077932	            1.443997	           -0.189730	          -61.420395	          990.542677	          148.991760	           -0.259477	            0.005816	           -0.772976	           -0.000203	            0.003279	            0.000493
            3.759500	          -57.181441	         1088.886231	         -142.895002	           -0.291057	            0.006242	           -0.412170	           -0.084266	            1.604644	           -0.210578	          -60.580650	          991.468327	          148.478486	           -0.259482	            0.005815	           -0.772896	            0.002990	           -0.048934	           -0.007328
            3.760000	          -56.172528	         1089.966976	         -142.663592	           -0.291130	            0.006241	           -0.412039	           -0.083977	            1.629488	           -0.213280	          -59.877917	          991.471032	          148.431251	           -0.259471	            0.005816	           -0.773025	            0.007506	           -0.124280	           -0.018606
            3.760500	          -55.025654	         1089.965821	         -142.345457	           -0.291194	            0.006241	           -0.412046	           -0.087604	            1.735283	           -0.226622	          -58.892142	          990.922603	          148.288085	           -0.259477	            0.005815	           -0.772938	            0.003724	           -0.062654	           -0.009376
            3.761000	          -54.154199	         1089.424633	         -142.212366	           -0.291252	            0.006242	           -0.412189	           -0.088578	            1.781926	           -0.232611	          -57.913795	          992.400909	          147.870562	           -0.259397	            0.005816	           -0.772933	            0.004132	           -0.070810	           -0.010551
            3.761500	          -52.961888	         1089.784669	         -142.030339	           -0.291373	            0.006242	           -0.412197	           -0.087949	            1.809703	           -0.235856	          -57.161743	          991.668605	          147.398349	           -0.259250	            0.005816	           -0.772882	            0.010042	           -0.174209	           -0.025894
            3.762000	          -52.088935	         1088.519937	         -141.350084	           -0.291450	            0.006243	           -0.412383	           -0.083363	            1.742075	           -0.226218	          -56.360141	          990.199694	          147.017329	           -0.259153	            0.005816	           -0.772771	            0.011505	           -0.202138	           -0.030012
            3.762500	          -50.941526	         1088.698217	         -140.801869	           -0.291607	            0.006242	           -0.412349	           -0.080099	            1.711846	           -0.221394	          -55.658162	          990.387148	          146.783039	           -0.259162	            0.005816	           -0.772667	            0.013179	           -0.234515	           -0.034757
            3.763000	          -49.611617	         1090.499572	         -140.476460	           -0.291480	            0.006241	           -0.412096	           -0.082920	            1.822646	           -0.234790	          -54.999889	          989.655296	          146.123154	           -0.259085	            0.005816	           -0.772621	            0.014052	           -0.252843	           -0.037332
            3.763500	          -48.693649	         1089.416643	         -140.116525	           -0.291661	            0.006242	           -0.412310	           -0.086839	            1.942828	           -0.249879	          -54.250373	          989.658672	          145.935123	           -0.259102	            0.005815	           -0.772583	            0.014565	           -0.265699	           -0.039180
            3.764000	          -47.638620	         1089.055271	         -139.891413	           -0.291637	            0.006242	           -0.412318	           -0.085833	            1.962198	           -0.252048	          -53.683707	          988.373163	          145.507924	           -0.258978	            0.005815	           -0.772425	            0.016861	           -0.310430	           -0.045701
            3.764500	          -46.582541	         1088.511956	         -139.254358	           -0.291690	            0.006243	           -0.412388	           -0.085707	            2.002756	           -0.256214	          -52.791875	          987.826526	          144.801660	           -0.258819	            0.005816	           -0.772523	            0.017556	           -0.328495	           -0.048153
